<?xml version="1.0" standalone="no"?>
<!DOCTYPE svg PUBLIC "-//W3C//DTD SVG 20010904//EN"
 "http://www.w3.org/TR/2001/REC-SVG-20010904/DTD/svg10.dtd">
<svg version="1.0" xmlns="http://www.w3.org/2000/svg"
 width="114.000000pt" height="91.000000pt" viewBox="0 0 114.000000 91.000000"
 preserveAspectRatio="xMidYMid meet">

<g transform="translate(0.000000,91.000000) scale(0.100000,-0.100000)"
fill="#0092a5" stroke="none">
<path d="M35 875 l-25 -24 0 -306 0 -307 29 -29 c17 -16 40 -29 54 -29 21 0
26 -7 36 -44 13 -52 63 -100 119 -115 79 -22 169 33 191 117 l12 42 119 0 120
0 0 -27 c0 -57 52 -113 121 -133 74 -21 170 37 191 116 12 43 12 43 62 46 l51
3 0 45 c0 39 -3 45 -25 50 -25 6 -25 7 -28 121 l-3 116 -108 106 -108 107 -57
0 -56 0 0 51 c0 52 -12 85 -39 106 -12 9 -98 12 -324 13 l-308 0 -24 -25z
m874 -309 c53 -54 91 -99 87 -105 -5 -7 -53 -11 -137 -11 l-129 0 0 105 0 105
43 0 c40 0 47 -5 136 -94z m-579 -311 c31 -16 55 -70 44 -101 -4 -10 -16 -29
-27 -41 -27 -30 -98 -32 -127 -3 -42 42 -33 117 19 145 34 18 55 18 91 0z
m581 -11 c40 -36 29 -130 -16 -148 -36 -13 -89 -6 -112 16 -26 24 -32 91 -10
119 32 41 99 48 138 13z"/>
</g>
</svg>
