<?xml version="1.0" standalone="no"?>
<!DOCTYPE svg PUBLIC "-//W3C//DTD SVG 20010904//EN"
 "http://www.w3.org/TR/2001/REC-SVG-20010904/DTD/svg10.dtd">
<svg version="1.0" xmlns="http://www.w3.org/2000/svg"
 width="114.000000pt" height="68.000000pt" viewBox="0 0 114.000000 68.000000"
 preserveAspectRatio="xMidYMid meet">

<g transform="translate(0.000000,68.000000) scale(0.100000,-0.100000)"
fill="#0092a5" stroke="none">
<path d="M281 616 l-58 -56 -106 0 -107 0 0 -220 0 -221 67 3 c59 3 69 6 78
25 16 36 39 28 117 -43 96 -86 119 -97 177 -90 60 9 88 8 134 0 31 -5 45 -2
67 15 21 15 37 19 58 15 25 -5 37 0 71 31 23 21 49 51 58 66 16 27 22 29 75
29 44 0 58 -3 58 -15 0 -22 34 -35 94 -35 l56 0 0 220 0 220 -107 0 -107 0
-54 53 -53 52 -230 3 -229 3 -59 -55z m184 -25 c3 -5 -15 -26 -39 -46 -77 -63
-84 -138 -20 -195 42 -37 89 -40 144 -9 l37 21 97 -78 c53 -43 96 -84 96 -92
0 -7 -10 -26 -22 -42 -23 -32 -55 -39 -77 -17 -10 10 -18 6 -40 -20 -33 -40
-56 -41 -93 -6 l-29 27 -25 -27 c-18 -19 -35 -27 -59 -27 -30 0 -49 13 -129
85 -67 61 -102 85 -120 85 l-26 0 0 115 0 115 38 0 c33 0 45 8 97 60 57 58 61
60 112 60 28 0 54 -4 58 -9z m370 -51 c52 -52 64 -60 97 -60 l38 0 0 -115 0
-115 -70 0 -70 0 -95 77 c-94 76 -110 98 -80 109 20 8 19 16 -6 42 l-20 23
-63 -56 c-69 -60 -107 -71 -126 -35 -17 33 -4 54 76 124 l75 66 92 0 93 0 59
-60z m-720 -345 c0 -23 -5 -31 -21 -33 -27 -4 -47 21 -39 48 5 16 14 20 33 18
23 -2 27 -8 27 -33z m960 14 c14 -42 -45 -66 -61 -24 -10 25 4 45 30 45 16 0
27 -7 31 -21z"/>
</g>
</svg>
