<?xml version="1.0" standalone="no"?>
<!DOCTYPE svg PUBLIC "-//W3C//DTD SVG 20010904//EN"
 "http://www.w3.org/TR/2001/REC-SVG-20010904/DTD/svg10.dtd">
<svg version="1.0" xmlns="http://www.w3.org/2000/svg"
 width="89.000000pt" height="88.000000pt" viewBox="0 0 89.000000 88.000000"
 preserveAspectRatio="xMidYMid meet">

<g transform="translate(0.000000,88.000000) scale(0.100000,-0.100000)"
fill="#0092a5" stroke="none">
<path d="M362 859 c-122 -24 -248 -122 -305 -238 -30 -63 -32 -72 -32 -181 0
-104 3 -121 27 -172 37 -80 73 -125 141 -175 149 -109 355 -109 504 0 68 50
104 95 141 175 24 51 27 68 27 172 0 109 -2 118 -32 181 -86 175 -283 275
-471 238z m198 -81 c47 -13 133 -72 163 -111 54 -71 71 -118 75 -212 3 -75 0
-100 -18 -147 -28 -76 -104 -159 -178 -195 -51 -25 -68 -28 -157 -28 -89 0
-106 3 -157 28 -74 36 -150 119 -178 195 -32 83 -25 215 14 291 81 158 257
230 436 179z"/>
<path d="M510 475 c-69 -69 -129 -125 -135 -125 -5 0 -35 25 -65 55 l-56 55
-27 -28 -27 -28 88 -87 87 -87 158 158 158 158 -29 27 -28 27 -124 -125z"/>
</g>
</svg>
